<svg width="1440" height="1024" viewBox="0 0 1440 1024" fill="none" xmlns="http://www.w3.org/2000/svg">
<rect width="1440" height="1024" fill="white"/>
<rect width="600" height="400" rx="10" transform="matrix(-1 0 0 1 690 213)" fill="#A7A7A7"/>
<rect x="90" y="633" width="160" height="30" rx="5" fill="#A7A7A7"/>
<rect x="90" y="679" width="600" height="40" rx="5" fill="#A7A7A7"/>
<rect x="90" y="735" width="600" height="30" rx="5" fill="#A7A7A7"/>
<rect x="90" y="781" width="300" height="30" rx="5" fill="#A7A7A7"/>
<rect x="750" y="213" width="150" height="30" rx="5" fill="#A7A7A7"/>
<rect x="750" y="251" width="600" height="30" rx="5" fill="#A7A7A7"/>
<rect x="750" y="301" width="150" height="30" rx="5" fill="#A7A7A7"/>
<rect x="750" y="339" width="290" height="30" rx="5" fill="#A7A7A7"/>
<rect x="1060" y="301" width="150" height="30" rx="5" fill="#A7A7A7"/>
<rect x="1060" y="339" width="290" height="30" rx="5" fill="#A7A7A7"/>
<rect x="750" y="389" width="150" height="30" rx="5" fill="#A7A7A7"/>
<rect x="750" y="427" width="600" height="30" rx="5" fill="#A7A7A7"/>
<rect x="750" y="477" width="150" height="30" rx="5" fill="#A7A7A7"/>
<rect x="750" y="515" width="600" height="80" rx="5" fill="#A7A7A7"/>
<rect x="750" y="615" width="150" height="30" rx="5" fill="#A7A7A7"/>
<circle cx="930" cy="630" r="10" fill="#A7A7A7"/>
<rect x="950" y="615" width="100" height="30" rx="5" fill="#A7A7A7"/>
<circle cx="1080" cy="630" r="10" fill="#A7A7A7"/>
<rect x="1100" y="615" width="100" height="30" rx="5" fill="#A7A7A7"/>
<circle cx="1230" cy="630" r="10" fill="#A7A7A7"/>
<rect x="1250" y="615" width="100" height="30" rx="5" fill="#A7A7A7"/>
<rect x="750" y="665" width="300" height="76" rx="5" fill="#A7A7A7"/>
<circle cx="1010" cy="703" r="19.4936" fill="#D9D9D9"/>
<rect x="770.506" y="683.506" width="38.9872" height="38.9872" rx="2" fill="#D9D9D9"/>
<rect x="820" y="688.75" width="100" height="28.5" rx="5" fill="#D9D9D9"/>
<rect x="750" y="761" width="600" height="50" rx="5" fill="#A7A7A7"/>
</svg>
