<svg width="1440" height="1024" viewBox="0 0 1440 1024" fill="none" xmlns="http://www.w3.org/2000/svg">
<rect width="1440" height="1024" fill="white"/>
<rect y="146" width="1440" height="878" rx="5" fill="#A7A7A7"/>
<rect x="570" y="96" width="300" height="100" rx="5" fill="#D9D9D9"/>
<rect x="520" y="256" width="400" height="50" rx="5" fill="#D9D9D9"/>
<rect x="220" y="366" width="1000" height="30" rx="5" fill="#D9D9D9"/>
<rect x="220" y="412" width="1000" height="30" rx="5" fill="#D9D9D9"/>
<rect x="220" y="458" width="1000" height="30" rx="5" fill="#D9D9D9"/>
<rect x="220" y="504" width="800" height="30" rx="5" fill="#D9D9D9"/>
<rect x="220" y="694" width="1000" height="30" rx="5" fill="#D9D9D9"/>
<rect x="220" y="740" width="1000" height="30" rx="5" fill="#D9D9D9"/>
<rect x="220" y="786" width="1000" height="30" rx="5" fill="#D9D9D9"/>
<rect x="220" y="832" width="800" height="30" rx="5" fill="#D9D9D9"/>
<rect x="220" y="594" width="300" height="40" rx="5" fill="#D9D9D9"/>
</svg>
