<svg width="1440" height="1024" viewBox="0 0 1440 1024" fill="none" xmlns="http://www.w3.org/2000/svg">
<rect width="1440" height="1024" fill="white"/>
<rect x="520" y="317" width="400" height="50" rx="5" fill="#A7A7A7"/>
<circle cx="276" cy="567" r="24" fill="#A7A7A7"/>
<rect x="340" y="427" width="120" height="120" rx="5" fill="#A7A7A7"/>
<rect x="500" y="427" width="120" height="120" rx="5" fill="#A7A7A7"/>
<rect x="660" y="427" width="120" height="120" rx="5" fill="#A7A7A7"/>
<rect x="820" y="427" width="120" height="120" rx="5" fill="#A7A7A7"/>
<rect x="980" y="427" width="120" height="120" rx="5" fill="#A7A7A7"/>
<rect x="340" y="587" width="120" height="120" rx="5" fill="#A7A7A7"/>
<rect x="500" y="587" width="120" height="120" rx="5" fill="#A7A7A7"/>
<rect x="660" y="587" width="120" height="120" rx="5" fill="#A7A7A7"/>
<rect x="820" y="587" width="120" height="120" rx="5" fill="#A7A7A7"/>
<rect x="980" y="587" width="120" height="120" rx="5" fill="#A7A7A7"/>
<circle cx="1164" cy="567" r="24" fill="#A7A7A7"/>
</svg>
