<svg width="1440" height="1024" viewBox="0 0 1440 1024" fill="none" xmlns="http://www.w3.org/2000/svg">
<rect width="1440" height="1024" fill="white"/>
<rect width="1440" height="300" rx="5" fill="#A7A7A7"/>
<rect x="570" y="95" width="300" height="50" rx="5" fill="#D9D9D9"/>
<rect x="520" y="175" width="400" height="30" rx="5" fill="#D9D9D9"/>
<rect x="96" y="265" width="360" height="640" rx="10" fill="#D9D9D9"/>
<rect x="176" y="305" width="200" height="40" rx="5" fill="#A7A7A7"/>
<rect x="116" y="385" width="320" height="40" rx="5" fill="#A7A7A7"/>
<rect x="116" y="441" width="320" height="40" rx="5" fill="#A7A7A7"/>
<rect x="116" y="497" width="320" height="40" rx="5" fill="#A7A7A7"/>
<rect x="116" y="553" width="320" height="40" rx="5" fill="#A7A7A7"/>
<rect x="116" y="609" width="320" height="40" rx="5" fill="#A7A7A7"/>
<rect x="116" y="665" width="320" height="40" rx="5" fill="#A7A7A7"/>
<rect x="116" y="721" width="320" height="40" rx="5" fill="#A7A7A7"/>
<rect x="120" y="777" width="240" height="40" rx="5" fill="#A7A7A7"/>
<rect x="540" y="265" width="360" height="640" rx="10" fill="#D9D9D9"/>
<rect x="620" y="305" width="200" height="40" rx="5" fill="#A7A7A7"/>
<rect x="560" y="385" width="320" height="40" rx="5" fill="#A7A7A7"/>
<rect x="560" y="441" width="320" height="40" rx="5" fill="#A7A7A7"/>
<rect x="560" y="497" width="320" height="40" rx="5" fill="#A7A7A7"/>
<rect x="560" y="553" width="320" height="40" rx="5" fill="#A7A7A7"/>
<rect x="560" y="609" width="320" height="40" rx="5" fill="#A7A7A7"/>
<rect x="560" y="665" width="320" height="40" rx="5" fill="#A7A7A7"/>
<rect x="560" y="721" width="320" height="40" rx="5" fill="#A7A7A7"/>
<rect x="564" y="777" width="240" height="40" rx="5" fill="#A7A7A7"/>
<rect x="984" y="265" width="360" height="640" rx="10" fill="#D9D9D9"/>
<rect x="1064" y="305" width="200" height="40" rx="5" fill="#A7A7A7"/>
<rect x="1004" y="385" width="320" height="40" rx="5" fill="#A7A7A7"/>
<rect x="1004" y="441" width="320" height="40" rx="5" fill="#A7A7A7"/>
<rect x="1004" y="497" width="320" height="40" rx="5" fill="#A7A7A7"/>
<rect x="1004" y="553" width="320" height="40" rx="5" fill="#A7A7A7"/>
<rect x="1004" y="609" width="320" height="40" rx="5" fill="#A7A7A7"/>
<rect x="1004" y="665" width="320" height="40" rx="5" fill="#A7A7A7"/>
<rect x="1004" y="721" width="320" height="40" rx="5" fill="#A7A7A7"/>
<rect x="1008" y="777" width="240" height="40" rx="5" fill="#A7A7A7"/>
</svg>
