<svg width="1440" height="1024" viewBox="0 0 1440 1024" fill="none" xmlns="http://www.w3.org/2000/svg">
<rect width="1440" height="1024" fill="white"/>
<rect y="385" width="1440" height="364" fill="#D9D9D9"/>
<rect x="520" y="73" width="400" height="50" rx="5" fill="#A7A7A7"/>
<rect x="140" y="183" width="360" height="364" rx="10" fill="#A7A7A7"/>
<circle cx="320" cy="283" r="60" fill="#D9D9D9"/>
<rect x="220" y="367" width="200" height="40" rx="5" fill="#D9D9D9"/>
<rect x="180" y="431" width="280" height="30" rx="5" fill="#D9D9D9"/>
<rect x="180" y="477" width="200" height="30" rx="5" fill="#D9D9D9"/>
<rect x="540" y="183" width="360" height="364" rx="10" fill="#A7A7A7"/>
<circle cx="720" cy="283" r="60" fill="#D9D9D9"/>
<rect x="620" y="367" width="200" height="40" rx="5" fill="#D9D9D9"/>
<rect x="580" y="431" width="280" height="30" rx="5" fill="#D9D9D9"/>
<rect x="580" y="477" width="200" height="30" rx="5" fill="#D9D9D9"/>
<rect x="940" y="183" width="360" height="364" rx="10" fill="#A7A7A7"/>
<circle cx="1120" cy="283" r="60" fill="#D9D9D9"/>
<rect x="1020" y="367" width="200" height="40" rx="5" fill="#D9D9D9"/>
<rect x="980" y="431" width="280" height="30" rx="5" fill="#D9D9D9"/>
<rect x="980" y="477" width="200" height="30" rx="5" fill="#D9D9D9"/>
<rect x="140" y="587" width="360" height="364" rx="10" fill="#A7A7A7"/>
<circle cx="320" cy="687" r="60" fill="#D9D9D9"/>
<rect x="220" y="771" width="200" height="40" rx="5" fill="#D9D9D9"/>
<rect x="180" y="835" width="280" height="30" rx="5" fill="#D9D9D9"/>
<rect x="180" y="881" width="200" height="30" rx="5" fill="#D9D9D9"/>
<rect x="540" y="587" width="360" height="364" rx="10" fill="#A7A7A7"/>
<circle cx="720" cy="687" r="60" fill="#D9D9D9"/>
<rect x="620" y="771" width="200" height="40" rx="5" fill="#D9D9D9"/>
<rect x="580" y="835" width="280" height="30" rx="5" fill="#D9D9D9"/>
<rect x="580" y="881" width="200" height="30" rx="5" fill="#D9D9D9"/>
<rect x="940" y="587" width="360" height="364" rx="10" fill="#A7A7A7"/>
<circle cx="1120" cy="687" r="60" fill="#D9D9D9"/>
<rect x="1020" y="771" width="200" height="40" rx="5" fill="#D9D9D9"/>
<rect x="980" y="835" width="280" height="30" rx="5" fill="#D9D9D9"/>
<rect x="980" y="881" width="200" height="30" rx="5" fill="#D9D9D9"/>
</svg>
