<svg width="1440" height="1024" viewBox="0 0 1440 1024" fill="none" xmlns="http://www.w3.org/2000/svg">
<rect width="1440" height="1024" fill="white"/>
<rect x="756" y="192" width="200" height="50" rx="5" fill="#A7A7A7"/>
<rect x="756" y="266" width="588" height="40" rx="5" fill="#A7A7A7"/>
<rect x="756" y="322" width="588" height="40" rx="5" fill="#A7A7A7"/>
<rect x="756" y="378" width="588" height="30" rx="5" fill="#A7A7A7"/>
<rect x="756" y="424" width="588" height="30" rx="5" fill="#A7A7A7"/>
<rect x="756" y="470" width="588" height="30" rx="5" fill="#A7A7A7"/>
<rect x="756" y="516" width="588" height="30" rx="5" fill="#A7A7A7"/>
<rect x="756" y="562" width="300" height="30" rx="5" fill="#A7A7A7"/>
<rect x="756" y="608" width="588" height="30" rx="5" fill="#A7A7A7"/>
<rect x="756" y="654" width="588" height="30" rx="5" fill="#A7A7A7"/>
<rect x="756" y="700" width="588" height="30" rx="5" fill="#A7A7A7"/>
<rect x="756" y="746" width="300" height="30" rx="5" fill="#A7A7A7"/>
<rect x="756" y="792" width="120" height="30" rx="5" fill="#A7A7A7"/>
<rect width="600" height="400" transform="matrix(-1 0 0 1 696 192)" fill="#A7A7A7"/>
<rect width="280" height="200" rx="10" transform="matrix(-1 0 0 1 696 632)" fill="#A7A7A7"/>
<rect width="280" height="200" rx="10" transform="matrix(-1 0 0 1 376 632)" fill="#A7A7A7"/>
</svg>
