<svg width="1440" height="1024" viewBox="0 0 1440 1024" fill="none" xmlns="http://www.w3.org/2000/svg">
<g clip-path="url(#clip0_26_271)">
<rect width="1440" height="1024" fill="white"/>
<rect y="56" width="1440" height="364" fill="#D9D9D9"/>
<rect x="520" y="96" width="400" height="50" rx="5" fill="#A7A7A7"/>
<rect x="220" y="206" width="1000" height="30" rx="5" fill="#A7A7A7"/>
<rect x="320" y="252" width="800" height="30" rx="5" fill="#A7A7A7"/>
<rect x="200" y="342" width="500" height="400" rx="10" fill="#A7A7A7"/>
<rect x="220" y="362" width="200" height="40" rx="5" fill="#D9D9D9"/>
<rect x="220" y="422" width="460" height="40" rx="5" fill="#D9D9D9"/>
<rect x="220" y="474" width="460" height="40" rx="5" fill="#D9D9D9"/>
<rect x="220" y="526" width="460" height="40" rx="5" fill="#D9D9D9"/>
<rect x="220" y="578" width="460" height="40" rx="5" fill="#D9D9D9"/>
<rect x="220" y="630" width="460" height="40" rx="5" fill="#D9D9D9"/>
<rect x="220" y="682" width="300" height="40" rx="5" fill="#D9D9D9"/>
<rect x="200" y="782" width="500" height="400" rx="10" fill="#A7A7A7"/>
<rect x="220" y="802" width="200" height="40" rx="5" fill="#D9D9D9"/>
<rect x="220" y="862" width="460" height="40" rx="5" fill="#D9D9D9"/>
<rect x="220" y="914" width="460" height="40" rx="5" fill="#D9D9D9"/>
<rect x="220" y="966" width="460" height="40" rx="5" fill="#D9D9D9"/>
<rect x="220" y="1018" width="460" height="40" rx="5" fill="#D9D9D9"/>
<rect x="740" y="834" width="500" height="400" rx="10" fill="#A7A7A7"/>
<rect x="760" y="854" width="200" height="40" rx="5" fill="#D9D9D9"/>
<rect x="760" y="914" width="460" height="40" rx="5" fill="#D9D9D9"/>
<rect x="760" y="966" width="460" height="40" rx="5" fill="#D9D9D9"/>
<rect x="760" y="1018" width="460" height="40" rx="5" fill="#D9D9D9"/>
<rect x="740" y="342" width="500" height="452" rx="10" fill="#A7A7A7"/>
<rect x="760" y="362" width="200" height="40" rx="5" fill="#D9D9D9"/>
<rect x="760" y="422" width="460" height="40" rx="5" fill="#D9D9D9"/>
<rect x="760" y="474" width="460" height="40" rx="5" fill="#D9D9D9"/>
<rect x="760" y="526" width="460" height="40" rx="5" fill="#D9D9D9"/>
<rect x="760" y="578" width="460" height="40" rx="5" fill="#D9D9D9"/>
<rect x="760" y="630" width="460" height="40" rx="5" fill="#D9D9D9"/>
<rect x="760" y="682" width="460" height="40" rx="5" fill="#D9D9D9"/>
<rect x="760" y="734" width="300" height="40" rx="5" fill="#D9D9D9"/>
</g>
<defs>
<clipPath id="clip0_26_271">
<rect width="1440" height="1024" fill="white"/>
</clipPath>
</defs>
</svg>
