<svg width="1440" height="1024" viewBox="0 0 1440 1024" fill="none" xmlns="http://www.w3.org/2000/svg">
<g clip-path="url(#clip0_2_12)">
<rect width="1440" height="1024" fill="white"/>
<rect x="420" y="96" width="600" height="50" rx="5" fill="#A7A7A7"/>
<rect x="520" y="162" width="400" height="40" rx="5" fill="#A7A7A7"/>
<rect x="96" y="262" width="240" height="240" rx="5" fill="#A7A7A7"/>
<rect x="360" y="308" width="400" height="30" rx="5" fill="#A7A7A7"/>
<rect x="360" y="354" width="500" height="20" rx="2" fill="#A7A7A7"/>
<rect x="360" y="390" width="500" height="20" rx="2" fill="#A7A7A7"/>
<rect x="360" y="426" width="200" height="30" rx="5" fill="#A7A7A7"/>
<rect x="96" y="862" width="240" height="240" rx="5" fill="#A7A7A7"/>
<rect x="360" y="908" width="400" height="30" rx="5" fill="#A7A7A7"/>
<rect x="360" y="954" width="500" height="20" rx="2" fill="#A7A7A7"/>
<rect x="360" y="990" width="500" height="20" rx="2" fill="#A7A7A7"/>
<rect width="240" height="240" rx="5" transform="matrix(-1 0 0 1 1344 562)" fill="#A7A7A7"/>
<rect width="400" height="30" rx="5" transform="matrix(-1 0 0 1 1080 608)" fill="#A7A7A7"/>
<rect width="500" height="20" rx="2" transform="matrix(-1 0 0 1 1080 654)" fill="#A7A7A7"/>
<rect width="500" height="20" rx="2" transform="matrix(-1 0 0 1 1080 690)" fill="#A7A7A7"/>
<rect width="200" height="30" rx="5" transform="matrix(-1 0 0 1 1080 726)" fill="#A7A7A7"/>
</g>
<defs>
<clipPath id="clip0_2_12">
<rect width="1440" height="1024" fill="white"/>
</clipPath>
</defs>
</svg>
